<svg width="33" height="33" viewBox="0 0 33 33" fill="none" xmlns="http://www.w3.org/2000/svg">
<g clip-path="url(#clip0_2_97)">
<path d="M16.2542 3.19565C20.5927 3.19565 21.1065 3.21468 22.8127 3.29079C24.3984 3.36056 25.2547 3.62696 25.8255 3.84896C26.5803 4.14073 27.1258 4.49593 27.6903 5.06044C28.2612 5.63129 28.61 6.17043 28.9018 6.92523C29.1238 7.49608 29.3902 8.3587 29.46 9.93807C29.5361 11.6506 29.5551 12.1644 29.5551 16.4965C29.5551 20.835 29.5361 21.3488 29.46 23.055C29.3902 24.6407 29.1238 25.497 28.9018 26.0679C28.61 26.8227 28.2548 27.3681 27.6903 27.9327C27.1195 28.5035 26.5803 28.8524 25.8255 29.1441C25.2547 29.3661 24.3921 29.6325 22.8127 29.7023C21.1001 29.7784 20.5864 29.7974 16.2542 29.7974C11.9157 29.7974 11.402 29.7784 9.69575 29.7023C8.11004 29.6325 7.25376 29.3661 6.68291 29.1441C5.92811 28.8524 5.38263 28.4972 4.81812 27.9327C4.24726 27.3618 3.89841 26.8227 3.60664 26.0679C3.38464 25.497 3.11824 24.6344 3.04847 23.055C2.97236 21.3425 2.95333 20.8287 2.95333 16.4965C2.95333 12.1581 2.97236 11.6443 3.04847 9.93807C3.11824 8.35236 3.38464 7.49608 3.60664 6.92523C3.89841 6.17043 4.25361 5.62495 4.81812 5.06044C5.38897 4.48958 5.92811 4.14073 6.68291 3.84896C7.25376 3.62696 8.11639 3.36056 9.69575 3.29079C11.402 3.21468 11.9157 3.19565 16.2542 3.19565ZM16.2542 0.271606C11.846 0.271606 11.2941 0.290635 9.56255 0.366749C7.8373 0.442863 6.65119 0.721947 5.62366 1.12154C4.55172 1.54017 3.6447 2.092 2.74401 2.99902C1.83699 3.8997 1.28517 4.80672 0.86654 5.87232C0.466942 6.9062 0.187858 8.08596 0.111744 9.81121C0.03563 11.5491 0.0166016 12.101 0.0166016 16.5092C0.0166016 20.9175 0.03563 21.4693 0.111744 23.2009C0.187858 24.9262 0.466942 26.1123 0.86654 27.1398C1.28517 28.2117 1.83699 29.1188 2.74401 30.0194C3.6447 30.9201 4.55172 31.4783 5.61731 31.8906C6.65119 32.2902 7.83096 32.5693 9.5562 32.6454C11.2878 32.7215 11.8396 32.7405 16.2479 32.7405C20.6561 32.7405 21.208 32.7215 22.9396 32.6454C24.6648 32.5693 25.8509 32.2902 26.8785 31.8906C27.944 31.4783 28.8511 30.9201 29.7517 30.0194C30.6524 29.1188 31.2106 28.2117 31.6229 27.1461C32.0225 26.1123 32.3016 24.9325 32.3777 23.2072C32.4538 21.4757 32.4728 20.9238 32.4728 16.5156C32.4728 12.1073 32.4538 11.5555 32.3777 9.8239C32.3016 8.09865 32.0225 6.91254 31.6229 5.885C31.2233 4.80672 30.6715 3.8997 29.7644 2.99902C28.8638 2.09834 27.9567 1.54017 26.8911 1.12789C25.8573 0.72829 24.6775 0.449205 22.9522 0.373092C21.2143 0.290635 20.6625 0.271606 16.2542 0.271606Z" fill="white" fill-opacity="0.5"/>
<path d="M16.2541 8.16846C11.6493 8.16846 7.91333 11.9044 7.91333 16.5093C7.91333 21.1142 11.6493 24.8501 16.2541 24.8501C20.859 24.8501 24.595 21.1142 24.595 16.5093C24.595 11.9044 20.859 8.16846 16.2541 8.16846ZM16.2541 21.9197C13.2667 21.9197 10.8437 19.4967 10.8437 16.5093C10.8437 13.5218 13.2667 11.0988 16.2541 11.0988C19.2416 11.0988 21.6646 13.5218 21.6646 16.5093C21.6646 19.4967 19.2416 21.9197 16.2541 21.9197Z" fill="white" fill-opacity="0.5"/>
<path d="M26.872 7.83848C26.872 8.91677 25.9967 9.78573 24.9248 9.78573C23.8465 9.78573 22.9775 8.91042 22.9775 7.83848C22.9775 6.7602 23.8528 5.89124 24.9248 5.89124C25.9967 5.89124 26.872 6.76655 26.872 7.83848Z" fill="white" fill-opacity="0.5"/>
</g>
<defs>
<clipPath id="clip0_2_97">
<rect width="32.4752" height="32.4752" fill="white" transform="translate(0.0166016 0.271606)"/>
</clipPath>
</defs>
</svg>
