<svg width="33" height="33" viewBox="0 0 33 33" fill="none" xmlns="http://www.w3.org/2000/svg">
<g clip-path="url(#clip0_2_223)">
<path d="M16.2542 3.44943C20.5927 3.44943 21.1065 3.46846 22.8127 3.54457C24.3984 3.61434 25.2547 3.88074 25.8255 4.10274C26.5803 4.39451 27.1258 4.74971 27.6903 5.31422C28.2612 5.88507 28.61 6.42421 28.9018 7.17901C29.1238 7.74986 29.3902 8.61249 29.46 10.1918C29.5361 11.9044 29.5551 12.4182 29.5551 16.7503C29.5551 21.0888 29.5361 21.6026 29.46 23.3088C29.3902 24.8945 29.1238 25.7508 28.9018 26.3216C28.61 27.0764 28.2548 27.6219 27.6903 28.1864C27.1195 28.7573 26.5803 29.1061 25.8255 29.3979C25.2547 29.6199 24.3921 29.8863 22.8127 29.9561C21.1001 30.0322 20.5864 30.0512 16.2542 30.0512C11.9157 30.0512 11.402 30.0322 9.69575 29.9561C8.11004 29.8863 7.25376 29.6199 6.68291 29.3979C5.92811 29.1061 5.38263 28.7509 4.81812 28.1864C4.24726 27.6156 3.89841 27.0764 3.60664 26.3216C3.38464 25.7508 3.11824 24.8882 3.04847 23.3088C2.97236 21.5962 2.95333 21.0825 2.95333 16.7503C2.95333 12.4118 2.97236 11.8981 3.04847 10.1918C3.11824 8.60614 3.38464 7.74986 3.60664 7.17901C3.89841 6.42421 4.25361 5.87873 4.81812 5.31422C5.38897 4.74337 5.92811 4.39451 6.68291 4.10274C7.25376 3.88074 8.11639 3.61434 9.69575 3.54457C11.402 3.46846 11.9157 3.44943 16.2542 3.44943ZM16.2542 0.525391C11.846 0.525391 11.2941 0.544419 9.56255 0.620533C7.8373 0.696647 6.65119 0.975731 5.62366 1.37533C4.55172 1.79395 3.6447 2.34578 2.74401 3.2528C1.83699 4.15348 1.28517 5.06051 0.86654 6.1261C0.466942 7.15998 0.187858 8.33975 0.111744 10.065C0.03563 11.8029 0.0166016 12.3548 0.0166016 16.763C0.0166016 21.1713 0.03563 21.7231 0.111744 23.4547C0.187858 25.1799 0.466942 26.366 0.86654 27.3936C1.28517 28.4655 1.83699 29.3725 2.74401 30.2732C3.6447 31.1739 4.55172 31.7321 5.61731 32.1444C6.65119 32.544 7.83096 32.823 9.5562 32.8992C11.2878 32.9753 11.8396 32.9943 16.2479 32.9943C20.6561 32.9943 21.208 32.9753 22.9396 32.8992C24.6648 32.823 25.8509 32.544 26.8785 32.1444C27.944 31.7321 28.8511 31.1739 29.7517 30.2732C30.6524 29.3725 31.2106 28.4655 31.6229 27.3999C32.0225 26.366 32.3016 25.1863 32.3777 23.461C32.4538 21.7294 32.4728 21.1776 32.4728 16.7694C32.4728 12.3611 32.4538 11.8093 32.3777 10.0777C32.3016 8.35243 32.0225 7.16632 31.6229 6.13879C31.2233 5.06051 30.6715 4.15348 29.7644 3.2528C28.8638 2.35212 27.9567 1.79395 26.8911 1.38167C25.8573 0.982074 24.6775 0.70299 22.9522 0.626876C21.2143 0.544419 20.6625 0.525391 16.2542 0.525391Z" fill="white"/>
<path d="M16.2541 8.42212C11.6493 8.42212 7.91333 12.158 7.91333 16.7629C7.91333 21.3678 11.6493 25.1037 16.2541 25.1037C20.859 25.1037 24.595 21.3678 24.595 16.7629C24.595 12.158 20.859 8.42212 16.2541 8.42212ZM16.2541 22.1734C13.2667 22.1734 10.8437 19.7504 10.8437 16.7629C10.8437 13.7755 13.2667 11.3525 16.2541 11.3525C19.2416 11.3525 21.6646 13.7755 21.6646 16.7629C21.6646 19.7504 19.2416 22.1734 16.2541 22.1734Z" fill="white"/>
<path d="M26.872 8.09227C26.872 9.17055 25.9967 10.0395 24.9248 10.0395C23.8465 10.0395 22.9775 9.16421 22.9775 8.09227C22.9775 7.01399 23.8528 6.14502 24.9248 6.14502C25.9967 6.14502 26.872 7.02033 26.872 8.09227Z" fill="white"/>
</g>
<defs>
<clipPath id="clip0_2_223">
<rect width="32.4752" height="32.4752" fill="white" transform="translate(0.0166016 0.525391)"/>
</clipPath>
</defs>
</svg>
