<svg width="33" height="33" viewBox="0 0 33 33" fill="none" xmlns="http://www.w3.org/2000/svg">
<g clip-path="url(#clip0_2_222)">
<path d="M30.5957 0.525391H2.922C1.59635 0.525391 0.524414 1.57196 0.524414 2.86589V30.6538C0.524414 31.9477 1.59635 33.0006 2.922 33.0006H30.5957C31.9214 33.0006 32.9997 31.9477 32.9997 30.6601V2.86589C32.9997 1.57196 31.9214 0.525391 30.5957 0.525391ZM10.1592 28.1991H5.33862V12.6973H10.1592V28.1991ZM7.74889 10.5851C6.20124 10.5851 4.9517 9.33557 4.9517 7.79426C4.9517 6.25296 6.20124 5.00342 7.74889 5.00342C9.29019 5.00342 10.5397 6.25296 10.5397 7.79426C10.5397 9.32923 9.29019 10.5851 7.74889 10.5851ZM28.1981 28.1991H23.3839V20.6638C23.3839 18.8688 23.3522 16.5537 20.8785 16.5537C18.3731 16.5537 17.9925 18.5136 17.9925 20.537V28.1991H13.1847V12.6973H17.8023V14.8158H17.8657C18.5063 13.5979 20.0793 12.3104 22.4198 12.3104C27.2975 12.3104 28.1981 15.5198 28.1981 19.6934V28.1991Z" fill="white"/>
</g>
<defs>
<clipPath id="clip0_2_222">
<rect width="32.4752" height="32.4752" fill="white" transform="translate(0.524414 0.525391)"/>
</clipPath>
</defs>
</svg>
