<svg width="33" height="27" viewBox="0 0 33 27" fill="none" xmlns="http://www.w3.org/2000/svg">
<path d="M10.7242 26.956C22.976 26.956 29.6791 16.803 29.6791 8.00107C29.6791 7.71564 29.6727 7.42387 29.6601 7.13845C30.964 6.19545 32.0893 5.02741 32.9831 3.68922C31.7687 4.22953 30.4793 4.5824 29.159 4.73579C30.5491 3.90249 31.59 2.59341 32.0887 1.05124C30.7809 1.8263 29.3507 2.37304 27.8593 2.66802C26.8545 1.60033 25.5259 0.893395 24.079 0.656508C22.6321 0.419621 21.1474 0.66598 19.8546 1.35749C18.5617 2.04901 17.5327 3.14716 16.9265 4.48217C16.3204 5.81719 16.1709 7.3147 16.5012 8.74318C13.8531 8.61029 11.2624 7.92238 8.89723 6.72403C6.53201 5.52569 4.44502 3.84366 2.77157 1.78701C1.92103 3.25344 1.66076 4.9887 2.04366 6.64013C2.42656 8.29156 3.4239 9.73523 4.83298 10.6777C3.77513 10.6442 2.74045 10.3593 1.81443 9.84683V9.92929C1.81349 11.4682 2.3455 12.9599 3.32005 14.1509C4.29459 15.342 5.65152 16.1587 7.16016 16.4624C6.18023 16.7305 5.15175 16.7696 4.1543 16.5766C4.58001 17.9 5.40829 19.0576 6.52354 19.8876C7.63879 20.7177 8.98537 21.1789 10.3753 21.2068C8.01558 23.0604 5.10059 24.0659 2.09986 24.0611C1.56771 24.0603 1.03608 24.0277 0.507812 23.9634C3.55623 25.9191 7.10236 26.9579 10.7242 26.956Z" fill="white"/>
</svg>
