<svg width="16" height="16" viewBox="0 0 16 16" fill="none" xmlns="http://www.w3.org/2000/svg">
<path d="M6.88857 9.17509C7.23024 9.50009 7.23024 10.0334 6.88857 10.3584C6.56357 10.6834 6.03024 10.6834 5.70524 10.3584C4.92472 9.57674 4.48633 8.51724 4.48633 7.41259C4.48633 6.30795 4.92472 5.24845 5.70524 4.46676L8.65524 1.51676C9.43693 0.736243 10.4964 0.297852 11.6011 0.297852C12.7057 0.297852 13.7652 0.736243 14.5469 1.51676C15.3274 2.29845 15.7658 3.35795 15.7658 4.46259C15.7658 5.56724 15.3274 6.62674 14.5469 7.40843L13.3052 8.65009C13.3136 7.96676 13.2052 7.28343 12.9719 6.63343L13.3636 6.23343C13.5972 6.00233 13.7826 5.7272 13.9092 5.42395C14.0358 5.12071 14.101 4.79536 14.101 4.46676C14.101 4.13816 14.0358 3.81282 13.9092 3.50957C13.7826 3.20632 13.5972 2.93119 13.3636 2.70009C13.1325 2.46648 12.8573 2.28102 12.5541 2.15444C12.2508 2.02787 11.9255 1.9627 11.5969 1.9627C11.2683 1.9627 10.943 2.02787 10.6397 2.15444C10.3365 2.28102 10.0613 2.46648 9.83024 2.70009L6.88857 5.64176C6.65496 5.87286 6.46949 6.14799 6.34292 6.45124C6.21635 6.75448 6.15117 7.07982 6.15117 7.40843C6.15117 7.73703 6.21635 8.06237 6.34292 8.36562C6.46949 8.66887 6.65496 8.944 6.88857 9.17509ZM9.23857 5.64176C9.56357 5.31676 10.0969 5.31676 10.4219 5.64176C11.2024 6.42345 11.6408 7.48295 11.6408 8.58759C11.6408 9.69224 11.2024 10.7517 10.4219 11.5334L7.4719 14.4834C6.69021 15.2639 5.63072 15.7023 4.52607 15.7023C3.42142 15.7023 2.36193 15.2639 1.58024 14.4834C0.79972 13.7017 0.361328 12.6422 0.361328 11.5376C0.361328 10.4329 0.79972 9.37345 1.58024 8.59176L2.8219 7.35009C2.81357 8.03343 2.9219 8.71676 3.15524 9.37509L2.76357 9.76676C2.52996 9.99786 2.34449 10.273 2.21792 10.5762C2.09135 10.8795 2.02617 11.2048 2.02617 11.5334C2.02617 11.862 2.09135 12.1874 2.21792 12.4906C2.34449 12.7939 2.52996 13.069 2.76357 13.3001C2.99466 13.5337 3.2698 13.7192 3.57305 13.8457C3.87629 13.9723 4.20163 14.0375 4.53024 14.0375C4.85884 14.0375 5.18418 13.9723 5.48743 13.8457C5.79068 13.7192 6.06581 13.5337 6.2969 13.3001L9.23857 10.3584C9.47219 10.1273 9.65765 9.8522 9.78422 9.54895C9.9108 9.24571 9.97597 8.92037 9.97597 8.59176C9.97597 8.26316 9.9108 7.93782 9.78422 7.63457C9.65765 7.33132 9.47219 7.05619 9.23857 6.82509C9.15764 6.74925 9.09312 6.65762 9.04902 6.55585C9.00491 6.45408 8.98216 6.34434 8.98216 6.23343C8.98216 6.12251 9.00491 6.01278 9.04902 5.91101C9.09312 5.80924 9.15764 5.7176 9.23857 5.64176Z" fill="white"/>
</svg>
